<?xml version="1.0" encoding="UTF-8"?>
<svg width="50px" height="64px" viewBox="0 0 500 640" version="1.1" xmlns="http://www.w3.org/2000/svg" xmlns:xlink="http://www.w3.org/1999/xlink">
    <title>Group 37</title>
    <defs>
        <polygon id="path-1" points="0.0292201299 0.137208333 16.9237429 0.137208333 16.9237429 1.93175 0.0292201299 1.93175"></polygon>
        <linearGradient x1="-0.00207440973%" y1="50.0146182%" x2="99.9991638%" y2="50.0146182%" id="linearGradient-3">
            <stop stop-color="#36EFE4" offset="0%"></stop>
            <stop stop-color="#9AFF69" offset="100%"></stop>
        </linearGradient>
        <path d="M25.0822659,0.00819101834 C11.3689221,0.00819101834 0.213154996,11.2186433 0.213154996,24.998395 L0.213154996,24.998395 C0.213154996,38.7789611 11.3689221,49.9902277 25.0822659,49.9902277 L25.0822659,49.9902277 C38.7947994,49.9902277 49.9505665,38.7789611 49.9505665,24.998395 L49.9505665,24.998395 C49.9505665,11.2186433 38.7947994,0.00819101834 25.0822659,0.00819101834 Z M2.64350118,24.998395 C2.64350118,12.5664058 12.7092998,2.45126502 25.0822659,2.45126502 L25.0822659,2.45126502 C37.4536113,2.45126502 47.5194099,12.5664058 47.5194099,24.998395 L47.5194099,24.998395 C47.5194099,37.432013 37.4536113,47.5471537 25.0822659,47.5471537 L25.0822659,47.5471537 C12.7092998,47.5471537 2.64350118,37.432013 2.64350118,24.998395 L2.64350118,24.998395 Z" id="path-4"></path>
        <linearGradient x1="1.72708758e-05%" y1="50.0002908%" x2="100.001608%" y2="50.0002908%" id="linearGradient-6">
            <stop stop-color="#36EFE4" offset="0%"></stop>
            <stop stop-color="#9AFF69" offset="100%"></stop>
        </linearGradient>
        <path d="M8.43828772,0.24837919 L8.43828772,0.263037634 C7.23758596,0.298869386 6.14352281,0.509788109 5.16993684,0.914524035 L5.16993684,0.914524035 C4.0994807,1.35834915 3.19508772,1.97318944 2.45594386,2.75823055 L2.45594386,2.75823055 C1.71598596,3.54408602 1.15267368,4.47652593 0.766007018,5.55799336 L0.766007018,5.55799336 C0.379340351,6.63946078 0.1856,7.82842347 0.1856,9.12651012 L0.1856,9.12651012 C0.1856,10.6061986 0.390736842,11.8798545 0.800196491,12.9507353 L0.800196491,12.9507353 C1.20965614,14.0199873 1.76727018,14.9133381 2.47222456,15.6316018 L2.47222456,15.6316018 C3.17717895,16.3482369 4.00261053,16.8775696 4.94770526,17.2187856 L4.94770526,17.2187856 C5.89198596,17.5600016 6.89894737,17.7310168 7.96777544,17.7310168 L7.96777544,17.7310168 C9.01381053,17.7310168 9.93041404,17.5885041 10.7151439,17.3042932 L10.7151439,17.3042932 C11.5006877,17.0192679 12.0306246,16.7863615 12.3025123,16.6047596 L12.3025123,16.6047596 L12.3025123,17.3547834 C12.3025123,18.994086 11.8881684,20.1895636 11.0570386,20.941216 L11.0570386,20.941216 C10.2267228,21.6920541 8.86647018,22.0674731 6.97790877,22.0674731 L6.97790877,22.0674731 L6.91034386,24.7988299 C9.77737544,24.7988299 11.9158456,24.1856183 13.3273825,22.9551233 L13.3273825,22.9551233 C14.7381053,21.7262571 15.4430596,19.7457385 15.4430596,17.0143817 L15.4430596,17.0143817 L15.4430596,3.048142 L19.3683368,3.048142 L19.3683368,17.0143817 C19.3683368,19.7457385 20.0749193,21.7262571 21.4848281,22.9551233 L21.4848281,22.9551233 C22.8955509,24.1856183 25.0340211,24.7988299 27.9010526,24.7988299 L27.9010526,24.7988299 L27.8334877,22.0674731 C25.9449263,22.0674731 24.5854877,21.6920541 23.7535439,20.941216 L23.7535439,20.941216 C22.9248561,20.1895636 22.5080702,18.994086 22.5080702,17.3547834 L22.5080702,17.3547834 L22.5080702,16.6047596 L22.5430737,13.8041825 L22.5430737,3.048142 L22.5430737,0.497572739 L22.5430737,0.119710626 L8.43828772,0.24837919 Z M6.48297544,14.658444 C5.90256842,14.4304238 5.39135439,14.0778068 4.94770526,13.5989643 L4.94770526,13.5989643 C4.50324211,13.1209361 4.15076491,12.5183112 3.88945965,11.7902751 L3.88945965,11.7902751 C3.62734035,11.0614247 3.4962807,10.1851755 3.4962807,9.16071316 L3.4962807,9.16071316 C3.4962807,7.31619228 3.95702456,5.83731815 4.87932632,4.72164769 L4.87932632,4.72164769 C5.80081404,3.60597723 7.1154807,3.048142 8.82169825,3.048142 L8.82169825,3.048142 C9.73097544,3.048142 10.4538386,3.08804554 10.9886596,3.16703827 L10.9886596,3.16703827 C11.5234807,3.24765971 11.9500351,3.3331673 12.2683228,3.42356104 L12.2683228,3.42356104 L12.2683228,13.8041825 C11.8588632,14.1225965 11.3012491,14.4011069 10.5954807,14.6413425 L10.5954807,14.6413425 C9.89134035,14.8799494 9.11637895,14.99966 8.2754807,14.99966 L8.2754807,14.99966 C7.66088421,14.99966 7.06338246,14.8856499 6.48297544,14.658444 L6.48297544,14.658444 Z" id="path-7"></path>
        <linearGradient x1="0.00232120304%" y1="50.0020125%" x2="100.001954%" y2="50.0020125%" id="linearGradient-9">
            <stop stop-color="#36EFE4" offset="0%"></stop>
            <stop stop-color="#9AFF69" offset="100%"></stop>
        </linearGradient>
    </defs>
    <g id="Page-1" stroke="none" stroke-width="1" fill="none" fill-rule="evenodd">
        <g id="Artboard" transform="translate(-8.000000, -1.000000)">
            <g id="Group-37" transform="translate(8.000000, 1.000000)">
                <g id="Group-24" transform="translate(18.000000, 62.000000)">
                    <mask id="mask-2" fill="white">
                        <use xlink:href="#path-1"></use>
                    </mask>
                    <g id="Clip-23"></g>
                    <polygon id="Fill-22" fill="url(#linearGradient-3)" mask="url(#mask-2)" points="0.0292201299 1.93175 16.9237429 1.93175 16.9237429 0.137208333 0.0292201299 0.137208333"></polygon>
                </g>
                <g id="Group-33">
                    <mask id="mask-5" fill="white">
                        <use xlink:href="#path-4"></use>
                    </mask>
                    <g id="Clip-32"></g>
                    <path d="M25.0822659,0.00819101834 C11.3689221,0.00819101834 0.213154996,11.2186433 0.213154996,24.998395 L0.213154996,24.998395 C0.213154996,38.7789611 11.3689221,49.9902277 25.0822659,49.9902277 L25.0822659,49.9902277 C38.7947994,49.9902277 49.9505665,38.7789611 49.9505665,24.998395 L49.9505665,24.998395 C49.9505665,11.2186433 38.7947994,0.00819101834 25.0822659,0.00819101834 Z M2.64350118,24.998395 C2.64350118,12.5664058 12.7092998,2.45126502 25.0822659,2.45126502 L25.0822659,2.45126502 C37.4536113,2.45126502 47.5194099,12.5664058 47.5194099,24.998395 L47.5194099,24.998395 C47.5194099,37.432013 37.4536113,47.5471537 25.0822659,47.5471537 L25.0822659,47.5471537 C12.7092998,47.5471537 2.64350118,37.432013 2.64350118,24.998395 L2.64350118,24.998395 Z" id="Fill-31" fill="url(#linearGradient-6)" mask="url(#mask-5)"></path>
                </g>
                <g id="Group-36" transform="translate(11.000000, 12.000000)">
                    <mask id="mask-8" fill="white">
                        <use xlink:href="#path-7"></use>
                    </mask>
                    <g id="Clip-35"></g>
                    <path d="M8.43828772,0.24837919 L8.43828772,0.263037634 C7.23758596,0.298869386 6.14352281,0.509788109 5.16993684,0.914524035 L5.16993684,0.914524035 C4.0994807,1.35834915 3.19508772,1.97318944 2.45594386,2.75823055 L2.45594386,2.75823055 C1.71598596,3.54408602 1.15267368,4.47652593 0.766007018,5.55799336 L0.766007018,5.55799336 C0.379340351,6.63946078 0.1856,7.82842347 0.1856,9.12651012 L0.1856,9.12651012 C0.1856,10.6061986 0.390736842,11.8798545 0.800196491,12.9507353 L0.800196491,12.9507353 C1.20965614,14.0199873 1.76727018,14.9133381 2.47222456,15.6316018 L2.47222456,15.6316018 C3.17717895,16.3482369 4.00261053,16.8775696 4.94770526,17.2187856 L4.94770526,17.2187856 C5.89198596,17.5600016 6.89894737,17.7310168 7.96777544,17.7310168 L7.96777544,17.7310168 C9.01381053,17.7310168 9.93041404,17.5885041 10.7151439,17.3042932 L10.7151439,17.3042932 C11.5006877,17.0192679 12.0306246,16.7863615 12.3025123,16.6047596 L12.3025123,16.6047596 L12.3025123,17.3547834 C12.3025123,18.994086 11.8881684,20.1895636 11.0570386,20.941216 L11.0570386,20.941216 C10.2267228,21.6920541 8.86647018,22.0674731 6.97790877,22.0674731 L6.97790877,22.0674731 L6.91034386,24.7988299 C9.77737544,24.7988299 11.9158456,24.1856183 13.3273825,22.9551233 L13.3273825,22.9551233 C14.7381053,21.7262571 15.4430596,19.7457385 15.4430596,17.0143817 L15.4430596,17.0143817 L15.4430596,3.048142 L19.3683368,3.048142 L19.3683368,17.0143817 C19.3683368,19.7457385 20.0749193,21.7262571 21.4848281,22.9551233 L21.4848281,22.9551233 C22.8955509,24.1856183 25.0340211,24.7988299 27.9010526,24.7988299 L27.9010526,24.7988299 L27.8334877,22.0674731 C25.9449263,22.0674731 24.5854877,21.6920541 23.7535439,20.941216 L23.7535439,20.941216 C22.9248561,20.1895636 22.5080702,18.994086 22.5080702,17.3547834 L22.5080702,17.3547834 L22.5080702,16.6047596 L22.5430737,13.8041825 L22.5430737,3.048142 L22.5430737,0.497572739 L22.5430737,0.119710626 L8.43828772,0.24837919 Z M6.48297544,14.658444 C5.90256842,14.4304238 5.39135439,14.0778068 4.94770526,13.5989643 L4.94770526,13.5989643 C4.50324211,13.1209361 4.15076491,12.5183112 3.88945965,11.7902751 L3.88945965,11.7902751 C3.62734035,11.0614247 3.4962807,10.1851755 3.4962807,9.16071316 L3.4962807,9.16071316 C3.4962807,7.31619228 3.95702456,5.83731815 4.87932632,4.72164769 L4.87932632,4.72164769 C5.80081404,3.60597723 7.1154807,3.048142 8.82169825,3.048142 L8.82169825,3.048142 C9.73097544,3.048142 10.4538386,3.08804554 10.9886596,3.16703827 L10.9886596,3.16703827 C11.5234807,3.24765971 11.9500351,3.3331673 12.2683228,3.42356104 L12.2683228,3.42356104 L12.2683228,13.8041825 C11.8588632,14.1225965 11.3012491,14.4011069 10.5954807,14.6413425 L10.5954807,14.6413425 C9.89134035,14.8799494 9.11637895,14.99966 8.2754807,14.99966 L8.2754807,14.99966 C7.66088421,14.99966 7.06338246,14.8856499 6.48297544,14.658444 L6.48297544,14.658444 Z" id="Fill-34" fill="url(#linearGradient-9)" mask="url(#mask-8)"></path>
                </g>
            </g>
        </g>
    </g>
</svg>